<?xml version="1.0" encoding="utf-8"?>
<!-- Generator: Adobe Illustrator 16.2.1, SVG Export Plug-In . SVG Version: 6.00 Build 0)  -->
<!DOCTYPE svg PUBLIC "-//W3C//DTD SVG 1.1//EN" "http://www.w3.org/Graphics/SVG/1.1/DTD/svg11.dtd">
<svg version="1.1" id="Layer_1" xmlns="http://www.w3.org/2000/svg" xmlns:xlink="http://www.w3.org/1999/xlink" x="0px" y="0px"
	 width="1449.745px" height="256.439px" viewBox="0 0 1449.745 256.439" enable-background="new 0 0 1449.745 256.439"
	 xml:space="preserve">
<g>
	<polygon fill="#030303" points="1396.452,164.631 1396.452,152.033 1355.055,138.325 1327.797,147.203 1327.797,161.122 
		1354.801,152.946 	"/>
	<polygon fill="#030303" points="1396.452,142.251 1396.452,131.072 1355.219,115.061 1327.797,125.084 1327.797,135.88 
		1355.055,127.051 	"/>
	<polygon fill="#030303" points="1396.452,121.19 1396.452,111.266 1354.733,93.077 1327.797,104.275 1327.797,115.07 
		1354.893,104.529 	"/>
	<path fill="#030303" d="M1449.745,205.599l-53.293-10.516v7.306l-41.396-8.15l-26.996,5.092v9.097l-6.883-1.534l-0.055-59.056
		c0,0-3.635-1.701-9.695-2.734c-4.18-0.712-8.791-0.668-8.791-0.668l-0.066,58.312l-6.904-1.54l-0.127-154.908l-0.004-0.001
		c-0.049-5.983-17.281-10.828-38.543-10.828c-20.76,0-37.637,4.623-38.467,10.409l-0.08,0.018v0.425l0.004,150.325l-26.006,6.365
		l-0.082-84.207l-7.383-2.428c0-0.089,0.014-0.172,0.014-0.261c0-19.433-14.145-35.184-31.594-35.184
		c-17.447,0-31.594,15.751-31.594,35.184c0,0.051,0.006,0.099,0.006,0.149l-6.539,1.278v80.158l-22.535-7.511l-0.096-99.021
		l-16.479-5.418l-0.068-69.611l-24.354-8.418l-18.053,4.629v74.013l-18.135,3.543v110.005l-28.406,7.731l-0.129-131.821
		l-8.461-2.667l-0.043-20.237l-39.158-34.451v-8.168l-1.221-0.72v-9.09L937.303,0l-1.062,0.488v9.248l-1.221,0.562v8.25
		L896.473,46.32l-0.139,23.449l-7.25,1.418v185.252h7.25V76.326l7.426-1.421l-0.199-27.009l23.752-16.765l-5.77,9.147l0.312,31.487
		l7.84-1.685l-0.08,186.357h12.811l-0.004-184.155l7.158,2.123l0.148,182.032h7.055L956.78,76.607l7.158,2.124l0.145,177.708h7.059
		l-0.004-175.508l7.158,2.122l0.139,173.386h69.707V90.795l5.104-0.969v166.613h8.137l0.104-165.712l23.047,7.578l0.123,158.134
		h38.201V125.68l27.979-5.47l-0.076,136.229h10.367l0.08-138.349v0.274l23.047,7.576l0.096,130.498l254.111-12.898L1449.745,205.599
		z M933.819,62.097V46.022l7.156,2.123l0.018,15.755L933.819,62.097z M948.176,65.708V50.346l7.156,2.123l0.016,15.043
		L948.176,65.708z M962.534,69.317V54.669l7.158,2.123l0.014,14.328L962.534,69.317z M1044.801,82.869l-5.102,0.993V20.255
		l5.102-0.969V82.869z M1136.709,113.353l-7.504,1.467c-0.184-0.941-2.316-13.379,10.225-23.722
		C1132.145,103.445,1135.952,111.905,1136.709,113.353z M1266.042,193.853l0.164-147.532c0,0,4.611-0.043,8.791,0.669
		c6.061,1.032,9.695,2.734,9.695,2.734l0.141,149.243L1266.042,193.853z"/>
	<polygon fill="#030303" points="1396.452,99.196 1396.452,89.312 1354.571,70.02 1327.797,82.286 1327.797,93.083 1354.733,81.889 
			"/>
	<path fill="#030303" d="M536.851,146.691V92.448l-12.189-4.102l-6.483,1.664l-0.012-13.517h-0.006v-0.759l-24.585-12.128
		l-17.821,8.338v75.622l-5.945,1.162v58.867l-23.271-7.766l-0.063-98.473l-3.974-1.306l-0.098-49.854l-35.673-17.16l-26.444,6.779
		v58.148l-10.9,2.13v96.55l-26.004,6.365l-0.084-84.207l-5.766-1.895l-0.068-9.435L303.9,76.49l-28.557,25.431v13.837l-9.135,1.785
		V197.7l-22.535-7.51l-0.097-99.021l-6.251-2.055l-0.061-8.186l-10.197-3.525l-0.04-5.35l-21.17-7.319V52.452l-1.899-1.12
		l-2.435,1.12v11.477l-16.899,4.335v4.682l-9.479,2.431v12.839l-8.658,1.691v110.015l-19.347,6.447l-0.126-128.242l-31.148-10.238
		l-8.232,2.075l-0.038-21.908l-7.632-2.25V38.98l-0.009-0.001v-6.741l-1.898-1.119l-2.435,1.119v5.273l-5.437-1.842v-8.385
		l-1.901-1.12l-2.434,1.12v8.118l-30.426,6.898v-0.818l-1.898-1.12l-2.434,1.12v1.799l-4.166,0.945V36.04l-1.9-1.121l-2.434,1.121
		v160.469L0,193.49v62.949h51.094V54.156l29.196-5.904v208.188h11.688l0.064-198.972l9.406,3.334v195.638h14.298l0.114-177.587
		l23.084,7.589l0.135,169.998h35.337V96.969l5.103-0.97v160.44h6.924V94.368l5.102-0.969v163.04h7.531V90.795l5.104-0.969v166.613
		h8.139l0.103-165.712l23.049,7.578l0.122,158.134h38.2V125.68l27.979-5.47l-0.076,136.229h10.366l0.081-138.074l23.047,7.576
		l0.096,130.498h180.401l0.055-105.494l22.155,7.283l0.062,98.211h8.994l-0.066-106.449L536.851,146.691z M285.803,99.591
		l16.161-13.68l0.642,10.231L285.803,99.591z M385.996,209.765h-9.024v-11.464l9.024-0.312V209.765z M385.996,183.872l-9.024-0.259
		v-10.643l9.024-0.151V183.872z M385.996,161.307l-9.024,0.38v-10.87l9.024-0.769V161.307z M385.996,138.536l-9.024,0.996v-10.233
		l9.024-1.54V138.536z M385.996,116.254l-9.024,1.764v-9.784l9.024-1.764V116.254z M404.864,209.765h-9.438v-12.105l9.448-0.328
		L404.864,209.765z M404.886,184.414l-9.46-0.271v-11.48l9.468-0.157L404.886,184.414z M404.904,160.513l-9.479,0.399v-11.67
		l9.488-0.809L404.904,160.513z M404.923,136.447l-9.497,1.049v-11.345l9.507-1.622L404.923,136.447z M404.942,112.551l-9.517,1.858
		v-9.783l9.523-1.862L404.942,112.551z M411.397,91.888V43.091l25.376,11.461v43.617l-21.445-7.05L411.397,91.888z M421.518,209.67
		l0.141-106.814l18.485,5.124l0.163,96.576L421.518,209.67z M506.608,134.559l-12.548-3.313l-11.042,2.984v-10.636l11.042-2.954
		l12.548,4.157V134.559z M506.608,113.258l-12.385-4.608l-11.205,3.696v-10.264l10.881-3.964l12.709,4.971V113.258z M510.965,91.86
		l-3.674,0.941l-13.553-6.137l-10.72,4.333v-11.19l10.72-4.331l17.227,7.175V91.86z"/>
	<polygon fill="#030303" points="1328.059,186.818 1354.801,180.326 1396.452,189.809 1396.452,177.211 1355.055,165.705 
		1328.059,172.899 	"/>
</g>
<path fill="#FFFFFF" d="M641.708,256.439c20.566-17.736,47.346-28.462,76.629-28.462c29.279,0,56.059,10.726,76.623,28.462h70.17
	V104.247l-13.689-3.165v-9.833l-21.406-6.761l-28.67,4.312v12.548l-15.705,2.601v68.148l-13.021-2.011V22.976l-38.506-12.658
	l-56.799,11.098v149.04l-13.783,2.132V80.803l-10.119-1.104V60.586l-39.276-4.35L585.59,62.35v27.87l-14.062,2.197v164.022H641.708z
	 M830.979,107.357l23.447,5.416v119.252l-23.447,6.786V107.357z M801.643,117.42l12.963-1.487v24.849l-12.963,0.385V117.42z
	 M801.643,153.026l12.963,0.173v24.839l-12.963-1.276V153.026z M801.643,188.638l12.963,1.812v24.848l-12.963-2.921V188.638z
	 M733.958,21.558l27.977,9.172v158.584l-27.977,6.324V21.558z M709.938,35.493l9.85-1.587v19.115l-9.85,1.223V35.493z
	 M709.938,63.61l9.85-1.03v19.126l-9.85,0.667V63.61z M709.938,91.752l9.85-0.49v19.135l-9.85,0.104V91.752z M709.938,119.865
	l9.85,0.09v19.13l-9.85-0.465V119.865z M709.938,146.909l9.85,0.613v19.131l-9.85-0.994V146.909z M709.938,173.948l9.85,1.154
	v19.133l-9.85-1.528V173.948z M691.34,38.484l9.861-1.59v18.421l-9.861,1.225V38.484z M691.34,65.563l9.861-1.03v18.431
	l-9.861,0.668V65.563z M691.34,92.664l9.861-0.49v18.421l-9.861,0.121V92.664z M691.34,119.753l9.861,0.062v18.416l-9.861-0.421
	V119.753z M691.34,145.791l9.861,0.597v18.414l-9.861-0.942V145.791z M691.34,171.843l9.861,1.099v18.435l-9.861-1.467V171.843z
	 M614.558,67.101l0.141-0.052l28.009,3.129v19.093l10.111,1.116v131.267l-22.207,7.197V83.132l-16.054,2.523V67.101z
	 M604.896,99.791l10.922-1.239v129.744l-10.922-2.01V99.791z M583.93,102.419l10.922-1.25v123.266l-10.922-2.011V102.419z"/>
</svg>
