<?xml version="1.0" encoding="utf-8"?>
<!-- Generator: Adobe Illustrator 16.2.1, SVG Export Plug-In . SVG Version: 6.00 Build 0)  -->
<!DOCTYPE svg PUBLIC "-//W3C//DTD SVG 1.1//EN" "http://www.w3.org/Graphics/SVG/1.1/DTD/svg11.dtd">
<svg version="1.1" id="Layer_1" xmlns="http://www.w3.org/2000/svg" xmlns:xlink="http://www.w3.org/1999/xlink" x="0px" y="0px"
	 width="471.605px" height="60.508px" viewBox="0 0 471.605 60.508" enable-background="new 0 0 471.605 60.508"
	 xml:space="preserve">
<g opacity="0.25">
	<path fill="#010101" d="M8.268,8.793H0.131V1.665h19.452l24.663,44.261h0.158V8.793H36.44V1.665h23.396v7.128h-8.383v50.392h-8.972
		L15.48,10.541h-0.162v40.933h8.221v7.117H0.131v-7.117h8.137V8.793z"/>
	<path fill="#010101" d="M76.441,8.793H69.06V1.665h47.215v17.092h-7.05V8.793H85v16.924h18.347v7.128H85v18.629h24.226V41.073h7.05
		v17.519H69.06v-7.117h7.381V8.793z"/>
	<path fill="#010101" d="M132.18,8.793h-6.882V1.665h21.8v7.128h-6.798l10.654,37.222h0.173l10.24-37.222h-6.798V1.665h26.154v7.128
		h-6.702l10.401,37.222h0.157l10.491-37.222h-6.798V1.665h20.881v7.128h-6.708L188.27,59.185h-8.137L167.396,14.15h-0.174
		l-12.654,45.035h-7.885L132.18,8.793z"/>
	<path fill="#010101" d="M273.402,1.126v21.285l-13.67-0.102c-1.438-6.187-5.346-9.202-11.275-9.202
		c-9.555,0-12.63,6.21-12.63,17.43c0,10.659,2.918,16.789,11.779,16.789c6.529,0,10.873-3.093,12.84-12.138l13.634,4.864
		c-4.192,15.792-16.93,20.456-28.172,20.456c-24.305,0-30.856-17.34-30.856-30.105c0-17.889,12.162-30.218,29.943-30.218
		c6.955,0,15.495,3.261,18.771,7.801v-6.86H273.402z"/>
	<path fill="#010101" d="M285.903,46.822h9.395v-33.4h-9.395V1.665h37.89v11.757h-9.391v33.4h9.391v11.77h-37.89V46.822z"/>
	<path fill="#010101" d="M395.644,24.551h-10.822V13.422h-9.915v33.4H383v12.374l-35.289-0.045V47.372l8.092-0.55v-33.4h-9.913
		v11.129h-10.81V1.665h60.563V24.551z"/>
	<path fill="#010101" d="M421.08,46.822h7.582l-0.141-11.846l-15.379-21.554h-7.731V1.665h29.673v11.757h-5.648l10.01,12.016
		l9.662-12.016h-5.409V1.665h27.907v11.757h-7.872l-16.37,21.554v11.846h7.575v11.77H421.08V46.822z"/>
</g>
<g>
	<path fill="#FFFFFF" d="M8.137,8.608H0V1.479h19.452l24.663,44.261h0.158V8.608h-7.964V1.479h23.396v7.129h-8.383V59h-8.972
		L15.35,10.357h-0.162v40.932h8.221v7.118H0v-7.118h8.137V8.608z"/>
	<path fill="#FFFFFF" d="M76.311,8.608H68.93V1.479h47.215v17.093h-7.05V8.608H84.869v16.923h18.347v7.129H84.869v18.628h24.226
		v-10.4h7.05v17.519H68.93v-7.118h7.381V8.608z"/>
	<path fill="#FFFFFF" d="M132.049,8.608h-6.882V1.479h21.799v7.129h-6.798l10.654,37.222h0.173l10.24-37.222h-6.798V1.479h26.154
		v7.129h-6.702l10.401,37.222h0.157l10.491-37.222h-6.797V1.479h20.881v7.129h-6.708L188.14,59h-8.138l-12.737-45.034h-0.174
		L154.437,59h-7.885L132.049,8.608z"/>
	<path fill="#FFFFFF" d="M273.271,0.942v21.284l-13.67-0.1c-1.438-6.188-5.346-9.202-11.275-9.202
		c-9.554,0-12.63,6.209-12.63,17.429c0,10.658,2.919,16.79,11.779,16.79c6.529,0,10.872-3.094,12.84-12.139l13.634,4.864
		c-4.192,15.792-16.93,20.455-28.172,20.455c-24.305,0-30.856-17.339-30.856-30.105C214.921,12.329,227.083,0,244.864,0
		c6.954,0,15.495,3.261,18.771,7.801V0.942H273.271z"/>
	<path fill="#FFFFFF" d="M285.773,46.637h9.394v-33.4h-9.394V1.479h37.889v11.758h-9.391v33.4h9.391v11.77h-37.889V46.637z"/>
	<path fill="#FFFFFF" d="M395.513,24.367H384.69V13.237h-9.913v33.4h8.093v12.374l-35.289-0.045V47.187l8.092-0.55v-33.4h-9.913
		v11.129h-10.811V1.479h60.563V24.367z"/>
	<path fill="#FFFFFF" d="M420.949,46.637h7.583l-0.141-11.847l-15.379-21.553h-7.731V1.479h29.672v11.758h-5.647l10.01,12.015
		l9.66-12.015h-5.408V1.479h27.908v11.758h-7.873l-16.37,21.553v11.847h7.576v11.77h-33.859V46.637z"/>
</g>
</svg>
